<?xml version="1.0" encoding="UTF-8"?><svg id="Layer_2" xmlns="http://www.w3.org/2000/svg" viewBox="0 0 96 84"><defs><style>.cls-1{fill:#546153;}</style></defs><g id="Layer_1-2"><path class="cls-1" d="M90,48c-3.31,0-6,2.68-6,5.99h0v18.01H12v-18c0-3.31-2.69-6-6-6S0,50.69,0,54v24c0,3.31,2.68,6,5.99,6h84.01c3.31,0,6-2.68,6-5.99h0v-24.01c0-3.31-2.68-6-5.99-6h0Z"/><path class="cls-1" d="M43.76,58.24c2.34,2.34,6.14,2.34,8.48,0,0,0,0,0,0,0l18-18c2.34-2.35,2.33-6.15-.02-8.48-2.34-2.33-6.12-2.33-8.46,0l-7.76,7.76V6c0-3.31-2.69-6-6-6s-6,2.69-6,6v33.52l-7.76-7.76c-2.35-2.34-6.15-2.33-8.48.02-2.33,2.34-2.33,6.12,0,8.46l18,18Z"/></g></svg>