<?xml version="1.0" encoding="UTF-8"?><svg id="Layer_2" xmlns="http://www.w3.org/2000/svg" viewBox="0 0 12.03 11.5"><defs><style>.cls-1{fill:#546153;}</style></defs><g id="Layer_1-2"><g id="Layer_3"><g id="g5891"><g id="shapes"><g id="rect11"><rect class="cls-1" x=".15" y="3.74" width="2.58" height="7.76" rx=".17" ry=".17"/></g><g id="path13-0"><path class="cls-1" d="M1.46,0C.58,0,0,.58,0,1.34s.56,1.34,1.43,1.34h.02c.9,0,1.46-.6,1.46-1.34-.02-.76-.56-1.34-1.44-1.34h0Z"/></g><g id="path15"><path class="cls-1" d="M9.06,3.56c-1.03,0-1.64.43-2.02.87-.11.12-.31.05-.31-.11v-.4c0-.1-.08-.17-.17-.17h-2.22c-.1,0-.18.08-.17.18.02,1.18,0,6.38,0,7.41,0,.1.08.18.17.18h2.23c.1,0,.17-.08.17-.17v-4.16c0-.23.02-.46.09-.63.19-.46.61-.94,1.32-.94.93,0,1.31.71,1.31,1.75v3.98c0,.1.08.17.17.17h2.23c.1,0,.17-.08.17-.17v-4.27c0-2.38-1.27-3.49-2.97-3.49Z"/></g></g></g></g></g></svg>