<?xml version="1.0" encoding="UTF-8"?><svg id="Layer_2" xmlns="http://www.w3.org/2000/svg" viewBox="0 0 63.78 52.5"><defs><style>.cls-1{fill:#f2ecd6;}</style></defs><g id="Layer_1-2"><path class="cls-1" d="M63.78,31.05c0-.93-.76-1.69-1.69-1.69-.12,0-.23.04-.34.07l-.02-.03s-.09,0-.27.09c-.03.01-.06.03-.09.05-.09.05-.2.12-.32.22-.06.05-.12.08-.18.14-.43.35-1.05.96-1.94,2.02v-.02c-6.31,7.96-16.05,13.08-27,13.08s-21.09-5.32-27.39-13.55c-.01-.01-.02-.02-.03-.03,0,0-.82-1.11-1.44-1.74-.05-.05-.09-.1-.14-.14-.08-.07-.15-.14-.21-.18-.03-.02-.06-.01-.09-.03-.26-.14-.54-.25-.85-.25-.97,0-1.76.79-1.76,1.76,0,.37.14.69.34.98,0,.02,0,.04,0,.05,5.32,12.16,17.46,20.67,31.59,20.67,13.28,0,24.79-7.53,30.54-18.54.02-.03.04-.06.06-.1.64-1.16.96-1.85,1.1-2.19.02-.04.04-.09.05-.13.03-.08.05-.13.05-.13h-.02c.03-.12.07-.24.07-.36Z"/><path class="cls-1" d="M12.19,15.27h.02s1.35-.76.53,1.07c-.02.03-.02.05-.03.08-3.15,6.23-2.27,12.34-.56,16.94.05.13.15.33.27.56h0s.05.09.15.23c.19.33.44.67.77.99.96,1.06,2.71,2.51,5.4,3,.4.11,1.04.24,1.71.17.02,0,.03,0,.05,0,0,0,0,0,0,0,.47-.05.94-.19,1.33-.51.02-.01.03-.02.05-.03,2.42-2.17,5.47-3.75,9.25-3.75,3.02-.03,6.64,1.67,9.69,4.41h0s1.28,1.1,2.94.38c.48-.2.99-.42,1.5-.65,1.52-.68,1.83-2.42,1.85-2.5.07-.62.11-1.26.11-1.9,0-3.56-.94-6.88-2.55-9.67h0s-.72-1.21.34-1.81c1.47-.76,2.94-.52,3.94-.16.34.14.66.32.98.51.5.4,2.86,2.42,3.72,5.88.06.32.12.65.16,1h0s0,.01,0,.02c.01.09.24,1.33,1.52.21l3.46-3.06s0,0,0,0c.82-.73.75-1.65.68-2.02-1.29-4.83-5.19-8.35-9.83-8.35-2.54,0-4.85,1.08-6.65,2.84-.03.02-.05.03-.08.06-1.2,1.03-2.03.32-2.03.32h0c-2.71-2.33-6.09-3.73-9.77-3.73-1.29,0-2.53.19-3.73.52-.03,0-.05,0-.09,0-1.84.38-1.1-1.24-1.1-1.24,0,0-.02,0-.03,0,.99-3.15.92-7.6-.54-10.15C20.17-3.34,10.03.94,6.97,2.5c-.82.39-.62,1-.52,1.22.01.03.03.05.04.08h0c.21.42.49,1,.88,1.81.12.28.27.89-.28,1.29,0,0,0,0,0,0-2.11,1.42-4.49,4.01-2.66,6.86,1.71,2.67,4.85,2.72,7.77,1.5ZM23.3,14.32l.04-.26c-.01.09-.03.17-.04.26h0Z"/></g></svg>