<?xml version="1.0" encoding="UTF-8"?><svg id="Layer_2" xmlns="http://www.w3.org/2000/svg" viewBox="0 0 12.03 8.53"><defs><style>.cls-1{fill:#546153;}</style></defs><g id="Layer_1-2"><g id="Layer_3"><path class="cls-1" d="M11.25,0H.78c-.43,0-.78.35-.78.78v6.97c0,.43.35.78.78.78h10.47c.43,0,.78-.35.78-.78V.78c0-.43-.35-.78-.78-.78ZM11.63,7.85c.1.1.09.26,0,.35-.05.05-.11.07-.17.07s-.13-.03-.18-.08l-4.02-4.19-.97.73c-.1.07-.21.11-.32.11s-.23-.04-.33-.11l-.88-.67L.79,8.2c-.05.05-.12.08-.18.08s-.12-.02-.17-.07c-.1-.1-.1-.25,0-.35l3.92-4.09L.34.72c-.11-.08-.13-.24-.05-.35.08-.11.24-.13.35-.05l5.29,4.02L11.35.29c.11-.08.27-.06.35.05.08.11.06.27-.05.35l-4,3.01,3.98,4.15Z"/></g></g></svg>