<?xml version="1.0" encoding="UTF-8"?><svg id="Layer_2" xmlns="http://www.w3.org/2000/svg" viewBox="0 0 18.32 12.99"><defs><style>.cls-1{fill:#f2ecd6;}</style></defs><g id="Layer_1-2"><path class="cls-1" d="M17.13,0H1.19C.53,0,0,.53,0,1.19v10.61c0,.66.53,1.19,1.19,1.19h15.94c.66,0,1.19-.53,1.19-1.19V1.19c0-.66-.53-1.19-1.19-1.19ZM17.72,11.95c.15.15.14.39-.01.54-.07.07-.17.11-.26.11s-.2-.04-.28-.12l-6.13-6.39-1.48,1.12c-.15.11-.32.16-.49.16s-.35-.06-.5-.17l-1.34-1.01L1.2,12.48c-.08.08-.18.12-.28.12s-.19-.03-.26-.11c-.15-.14-.16-.39-.01-.54l5.97-6.23L.52,1.09c-.17-.13-.2-.37-.07-.53.13-.17.37-.2.53-.07l8.05,6.12L17.28.44c.17-.12.41-.1.53.08.13.17.09.41-.07.53l-6.08,4.58,6.06,6.32Z"/></g></svg>