<?xml version="1.0" encoding="UTF-8"?><svg id="Layer_2" xmlns="http://www.w3.org/2000/svg" viewBox="0 0 18.32 17.51"><defs><style>.cls-1{fill:#f2ecd6;}</style></defs><g id="Layer_1-2"><g id="g5891"><g id="shapes"><rect id="rect11" class="cls-1" x=".23" y="5.7" width="3.93" height="11.82" rx=".27" ry=".27"/><path id="path13-0" class="cls-1" d="M2.22,0C.88,0,0,.88,0,2.04s.85,2.04,2.17,2.04h.03c1.37,0,2.22-.91,2.22-2.04-.03-1.16-.85-2.04-2.2-2.04h0Z"/><path id="path15" class="cls-1" d="M13.8,5.42c-1.57,0-2.49.65-3.07,1.32-.16.19-.47.07-.47-.17v-.6c0-.15-.12-.27-.27-.27h-3.39c-.15,0-.27.12-.27.27.03,1.8,0,9.72,0,11.28,0,.15.12.27.27.27h3.39c.15,0,.27-.12.27-.27v-6.33c0-.35.03-.71.13-.96.28-.71.93-1.44,2.01-1.44,1.42,0,1.99,1.08,1.99,2.67v6.06c0,.15.12.27.27.27h3.4c.15,0,.27-.12.27-.27v-6.51c0-3.63-1.94-5.32-4.52-5.32Z"/></g></g></g></svg>