<?xml version="1.0" encoding="UTF-8"?><svg id="Layer_2" xmlns="http://www.w3.org/2000/svg" viewBox="0 0 24.92 13.64"><defs><style>.cls-1{fill:#f2ecd6;}</style></defs><g id="Layer_1-2"><path class="cls-1" d="M5.07,3.8c.47-.27,1.02-.4,1.64-.4.76,0,1.38.19,1.87.56s.88.91,1.18,1.6l3.08-1.31c-.46-1.4-1.21-2.46-2.24-3.17-1.03-.71-2.33-1.07-3.89-1.07-1,0-1.91.16-2.74.49s-1.53.8-2.12,1.41c-.59.61-1.05,1.33-1.37,2.17-.32.84-.48,1.75-.48,2.76,0,1.35.27,2.53.81,3.56.54,1.02,1.31,1.82,2.31,2.4s2.2.87,3.58.87c1.57,0,2.86-.36,3.89-1.07,1.03-.71,1.77-1.77,2.24-3.17l-3.08-1.31c-.3.69-.69,1.22-1.18,1.59-.49.37-1.11.55-1.87.55-.62,0-1.16-.13-1.64-.4-.48-.26-.84-.65-1.11-1.17s-.39-1.13-.39-1.85.13-1.34.39-1.85c.26-.51.63-.91,1.11-1.18Z"/><polygon class="cls-1" points="21.41 .25 21.41 5.24 17.21 5.24 17.21 .25 13.72 .25 13.72 13.37 17.21 13.37 17.21 8.63 21.41 8.63 21.41 13.37 24.92 13.37 24.92 .25 21.41 .25"/></g></svg>