<?xml version="1.0" encoding="UTF-8"?><svg id="Layer_2" xmlns="http://www.w3.org/2000/svg" viewBox="0 0 24.14 12.25"><defs><style>.cls-1{fill:#282e27;}</style></defs><g id="Layer_1-2"><path class="cls-1" d="M23.01,9.76c-.06.04-.05,0-.03-.06.03.03.04.05.03.06Z"/><path class="cls-1" d="M13.47,8.8s-3.58.71-5.96-.19l-.82-.33c-1.45-.31-4.3-3.78-4.69-4.38s-1.12-1.16-1.12-1.16c-.06.09.1.32.1.32l1.3,2.55c-.38-.34-1.56-.54-1.97-.48s-.29.2-.29.2c1.56.43,1.83.79,1.83.79,1.15,1.65,2.51,2.88,5.55,4.12,3.04,1.24,6.69.43,6.69.43,0,0-.17-.08.66.3s1.76,1.34,1.82,1.28c.07-.07,0,0-.26-.55s-1.41-1.23-1.41-1.23c.59-.09,1.98-.66,1.98-.66.89.12,1.36.56,1.77.68.42.12,1.38,1.04,1.43.99.05-.05.01-.16.01-.16-1.09-1.79-2.28-2.03-2.28-2.03.63-.25,1.16-.74,1.16-.74.57-.18.82-.05,1.71.16.78.18,2.06.8,2.29,1.01.02-.05.06-.11.06-.11-.47-1.03-2.18-1.71-2.71-1.82s-.46-.2-.46-.2c1.76-1,2.44-.95,3.19-1.02.76-.07,1.03.25,1.07.17.04-.08-.05-.22-.05-.22-.91-.91-2.75-1.02-3.14-1.04.03-.08,0-.41-.39-1.5-.64-1.85-2.47-3.7-2.47-3.7,0,0-.44-.35-.5-.27s.08.31.08.31c1.87,3.2,1.31,5.11,1.31,5.11-1.58,2.06-4.71,3.07-4.71,3.07l-.79.3Z"/></g></svg>