<?xml version="1.0" encoding="UTF-8"?><svg id="Layer_2" xmlns="http://www.w3.org/2000/svg" viewBox="0 0 31.94 22.65"><defs><style>.cls-1{fill:#f7f5ec;}</style></defs><g id="Layer_1-2"><path class="cls-1" d="M29.86,0H2.08C.93,0,0,.93,0,2.08v18.49c0,1.15.93,2.08,2.08,2.08h27.78c1.15,0,2.08-.93,2.08-2.08V2.08c0-1.15-.93-2.08-2.08-2.08ZM30.88,20.84c.25.26.24.68-.02.94-.13.12-.29.18-.46.18s-.35-.07-.48-.2l-10.68-11.13-2.59,1.95c-.25.19-.55.29-.86.29s-.61-.1-.87-.29l-2.33-1.77L2.09,21.76c-.13.14-.31.2-.48.2s-.33-.06-.46-.19c-.26-.25-.27-.67-.02-.94l10.41-10.85L.91,1.91c-.29-.22-.35-.64-.13-.93.22-.29.64-.35.93-.13l14.03,10.66L30.12.77c.29-.22.71-.17.93.13.22.29.16.71-.13.93l-10.61,7.99,10.57,11.02Z"/></g></svg>