<?xml version="1.0" encoding="UTF-8"?><svg id="Layer_2" xmlns="http://www.w3.org/2000/svg" viewBox="0 0 31.94 30.53"><defs><style>.cls-1{fill:#f7f5ec;}</style></defs><g id="Layer_1-2"><g id="g5891"><g id="shapes"><g id="rect11"><rect class="cls-1" x=".4" y="9.93" width="6.85" height="20.6" rx=".46" ry=".46"/></g><g id="path13-0"><path class="cls-1" d="M3.87,0C1.53,0,0,1.54,0,3.56s1.48,3.56,3.78,3.56h.04c2.39,0,3.87-1.58,3.87-3.56-.04-2.02-1.49-3.56-3.83-3.56h0Z"/></g><g id="path15"><path class="cls-1" d="M24.06,9.45c-2.74,0-4.34,1.14-5.35,2.3-.28.33-.82.13-.82-.3v-1.05c0-.26-.21-.46-.46-.46h-5.91c-.26,0-.47.21-.46.47.06,3.13,0,16.94-.01,19.66,0,.26.21.47.46.47h5.92c.26,0,.46-.21.46-.46v-11.04c0-.62.04-1.23.23-1.67.49-1.23,1.62-2.5,3.51-2.5,2.48,0,3.47,1.89,3.47,4.66v10.56c0,.26.21.46.46.46h5.92c.26,0,.46-.21.46-.46v-11.35c0-6.33-3.38-9.27-7.88-9.27Z"/></g></g></g></g></svg>