<?xml version="1.0" encoding="UTF-8"?><svg id="Layer_2" xmlns="http://www.w3.org/2000/svg" viewBox="0 0 10.62 12.25"><defs><style>.cls-1{fill:#282e27;}</style></defs><g id="Layer_1-2"><path class="cls-1" d="M9.25,3.86h-.61v-.62c0-1.79-1.48-3.24-3.3-3.24h-.14C3.38,0,1.91,1.45,1.91,3.24v.62h-.53c-.76,0-1.37.6-1.37,1.35v5.69c0,.75.61,1.35,1.37,1.35h7.87c.76,0,1.37-.6,1.37-1.35v-5.69c0-.75-.61-1.35-1.37-1.35ZM2.85,3.24c0-1.27,1.05-2.31,2.35-2.31h.14c1.29,0,2.35,1.04,2.35,2.31v.62H2.85v-.62Z"/><path class="cls-1" d="M3.57,8.16c0-.95.78-1.71,1.74-1.71s1.74.77,1.74,1.71-.78,1.71-1.74,1.71-1.74-.77-1.74-1.71Z"/></g></svg>