<?xml version="1.0" encoding="UTF-8"?><svg id="Layer_2" xmlns="http://www.w3.org/2000/svg" viewBox="0 0 352 511.95"><defs><style>.cls-1{fill:#f7f5ec;}</style></defs><g id="Layer_1-2"><path class="cls-1" d="M96.1,454.29c0,6.3,1.82,12.44,5.28,17.69l17.14,25.69c5.25,7.88,17.17,14.28,26.64,14.28h61.67c9.44,0,21.36-6.4,26.61-14.28l17.08-25.68c2.94-4.44,5.35-12.37,5.35-17.7l.13-39.2H96l.1,39.2ZM175.4,0C73.44.31,0,82.96,0,175.09c0,44.38,16.44,84.84,43.56,115.8,16.53,18.84,42.34,58.23,52.22,91.45.03.25.09.52.12.78h160.2c.03-.27.09-.52.12-.78,9.88-33.22,35.69-72.61,52.22-91.45,27.15-30.1,43.55-70.5,43.55-115.8C352,78.6,272.9-.3,175.4,0ZM176,96c-44.13,0-80,35.89-80,79.1,0,9.69-7.2,16.89-16,16.89s-16-7.2-16-16c0-61.76,50.25-111.1,112-111.1,8.84,0,16,7.16,16,16s-7.2,15.11-16,15.11Z"/></g></svg>