<?xml version="1.0" encoding="UTF-8"?><svg id="Layer_2" xmlns="http://www.w3.org/2000/svg" viewBox="0 0 406.59 406.59"><defs><style>.cls-1{fill:#f7f5ec;}</style></defs><g id="Layer_1-2"><path class="cls-1" d="M172.59,259.8c-3.85,0-7.76-.36-11.73-1.09-17.19-3.16-34.89-13.43-51.18-29.73L24.7,144C8.77,128.07,0,106.89,0,84.35c0-22.53,8.77-43.71,24.7-59.65C40.64,8.78,61.82,0,84.35,0c22.53,0,43.71,8.77,59.65,24.71l73.72,73.72c1.47,1.47,2.15,2.28,2.97,3.34.14.19.23.3.46.58,6.2,7.43,5.2,18.47-2.23,24.66-7.42,6.19-18.46,5.2-24.66-2.23-.52-.63-.88-1.09-1.17-1.46-.04-.04-.08-.08-.13-.13L119.24,49.47c-9.32-9.32-21.71-14.45-34.89-14.45-13.18,0-25.57,5.13-34.89,14.45-9.32,9.32-14.45,21.71-14.45,34.88,0,13.18,5.13,25.57,14.45,34.89l84.99,84.99c11.24,11.25,22.57,18.18,32.74,20.05,9.79,1.8,18.18-1.2,26.41-9.43,6.84-6.84,17.92-6.84,24.76,0,6.84,6.84,6.84,17.92,0,24.76-13.34,13.34-28.98,20.2-45.78,20.2h0Z"/><path class="cls-1" d="M185.21,304.01s0,.01.01.02c0,0-.01-.01-.01-.02h0ZM322.24,406.59c-22.53,0-43.72-8.78-59.65-24.71l-78.05-78.05c-.19-.19-.32-.32-.4-.4-6.66-6.85-6.71-17.58-.12-24.43,6.65-6.9,17.44-7.18,24.57-.64l.09.09c1.25.87,2.41,1.92,3.43,3.15.34.41.66.83.96,1.25l74.28,74.28c9.32,9.32,21.71,14.45,34.89,14.45s25.57-5.13,34.89-14.45c9.32-9.32,14.45-21.71,14.45-34.88s-5.13-25.57-14.45-34.89l-84.99-84.99c-10.03-10.04-22.03-16.07-33.76-17-11.53-.9-22.26,3.25-31.02,12.01-6.84,6.84-17.92,6.84-24.76,0-6.84-6.84-6.84-17.92,0-24.76,16-16,36.79-23.87,58.53-22.16,20.04,1.57,39.85,11.21,55.78,27.14l84.99,84.99c15.93,15.93,24.71,37.11,24.71,59.65s-8.77,43.71-24.71,59.64c-15.93,15.93-37.11,24.71-59.65,24.71h0Z"/></g></svg>